<?xml version="1.0" standalone="no"?>
<!DOCTYPE svg PUBLIC "-//W3C//DTD SVG 20010904//EN"
 "http://www.w3.org/TR/2001/REC-SVG-20010904/DTD/svg10.dtd">
<svg version="1.0" xmlns="http://www.w3.org/2000/svg"
 width="180.000000pt" height="180.000000pt" viewBox="0 0 180.000000 180.000000"
 preserveAspectRatio="xMidYMid meet">
<metadata>
Created by potrace 1.11, written by Peter Selinger 2001-2013
</metadata>
<g transform="translate(0.000000,180.000000) scale(0.100000,-0.100000)"
fill="#000000" stroke="none">
<path d="M405 1374 c-22 -8 -64 -20 -94 -25 -94 -17 -144 -57 -157 -125 -14
-74 67 -154 157 -154 22 0 50 -10 73 -25 20 -14 41 -25 46 -25 13 0 22 -18 15
-31 -5 -6 -12 -4 -21 8 -13 16 -14 14 -13 -22 0 -22 -5 -59 -11 -82 -15 -52
-7 -77 20 -70 18 5 20 0 20 -61 0 -161 135 -313 292 -329 38 -4 76 1 129 15
71 20 78 20 120 5 27 -10 77 -17 129 -17 74 -1 93 3 142 27 105 51 168 152
176 279 4 64 7 77 23 81 32 9 32 33 -4 114 -19 43 -33 81 -31 85 2 3 18 10 35
13 17 4 49 25 70 46 47 47 53 96 17 149 -55 80 -168 91 -215 21 -13 -19 -28
-51 -33 -73 -6 -21 -15 -38 -20 -38 -4 0 -37 7 -71 16 -70 18 -135 14 -212
-12 -45 -15 -49 -15 -107 7 -51 20 -60 28 -66 54 -19 89 -64 130 -149 136 -22
1 -57 11 -79 22 -54 26 -132 31 -181 11z m173 -51 c31 -25 41 -28 64 -19 58
21 126 -25 131 -89 2 -28 0 -30 -49 -36 -68 -9 -151 -47 -203 -94 -40 -36 -43
-37 -79 -27 -20 6 -49 23 -64 37 -24 22 -31 24 -49 14 -45 -24 -122 13 -135
66 -20 81 34 141 118 130 28 -3 49 -1 53 5 3 6 23 19 43 30 53 29 121 22 170
-17z m842 -158 c0 -99 -1 -105 -21 -105 -13 0 -18 4 -13 12 4 7 3 8 -5 4 -16
-10 -41 12 -58 52 -11 26 -12 41 -3 68 13 37 53 74 81 74 17 0 19 -9 19 -105z
m-152 -270 c20 -58 22 -60 59 -63 49 -4 63 -23 63 -88 0 -106 -95 -231 -200
-263 -68 -20 -185 -7 -196 23 -3 7 11 38 30 70 41 69 60 141 54 206 l-5 49 46
3 c43 3 47 5 58 39 6 20 19 53 28 74 13 34 17 37 30 24 7 -8 22 -41 33 -74z
m-584 5 c27 -67 29 -70 67 -76 l39 -7 0 -51 c0 -47 16 -125 34 -167 10 -22
-61 -43 -99 -29 -35 13 -45 13 -45 -3 0 -16 42 -37 73 -37 12 0 36 9 54 20
l32 19 21 -26 c11 -14 20 -29 20 -34 0 -13 -70 -29 -125 -29 -151 1 -288 160
-261 303 6 31 10 35 52 43 46 9 47 10 64 65 31 101 38 102 74 9z m346 -147 c0
-76 -29 -151 -72 -191 l-26 -23 -31 38 c-35 42 -61 117 -61 174 0 67 2 69 101
69 l89 0 0 -67z"/>
<path d="M1376 1188 c3 -5 10 -6 15 -3 13 9 11 12 -6 12 -8 0 -12 -4 -9 -9z"/>
<path d="M1250 760 c-26 -26 -25 -40 1 -40 18 0 19 -3 9 -15 -16 -19 -4 -35
25 -35 24 0 55 33 55 57 0 18 -37 53 -55 53 -8 0 -24 -9 -35 -20z"/>
<path d="M1068 582 c-10 -4 -14 -12 -10 -18 5 -8 28 -9 72 -5 l65 7 -40 12
c-44 13 -62 14 -87 4z"/>
<path d="M552 773 c-12 -10 -22 -27 -24 -38 -2 -16 2 -19 22 -17 22 4 23 2 10
-13 -12 -15 -12 -19 4 -31 16 -11 23 -11 47 1 47 25 47 79 -1 105 -26 14 -35
13 -58 -7z"/>
<path d="M912 783 c-18 -7 -44 -61 -33 -67 5 -4 17 -3 28 1 16 6 17 5 3 -11
-13 -16 -12 -20 3 -31 23 -16 53 -8 72 18 21 30 19 44 -10 72 -24 25 -37 28
-63 18z"/>
<path d="M1460 1358 c0 -19 2 -20 10 -8 13 19 13 30 0 30 -5 0 -10 -10 -10
-22z"/>
<path d="M1300 1343 c0 -6 7 -19 16 -28 9 -9 19 -13 22 -10 3 3 -4 15 -16 28
-12 12 -22 16 -22 10z"/>
<path d="M1575 1250 c-3 -5 1 -10 9 -10 9 0 16 5 16 10 0 6 -4 10 -9 10 -6 0
-13 -4 -16 -10z"/>
<path d="M1215 1220 c3 -5 13 -10 21 -10 8 0 14 5 14 10 0 6 -9 10 -21 10 -11
0 -17 -4 -14 -10z"/>
<path d="M1570 1132 c0 -11 24 -22 48 -22 21 0 5 15 -25 25 -13 3 -23 2 -23
-3z"/>
<path d="M1514 1004 c3 -9 6 -18 6 -20 0 -3 4 -3 10 1 11 7 2 35 -12 35 -6 0
-7 -7 -4 -16z"/>
<path d="M215 991 c-3 -5 -1 -12 5 -16 5 -3 10 1 10 9 0 18 -6 21 -15 7z"/>
<path d="M310 980 c0 -19 3 -21 12 -12 9 9 9 15 0 24 -9 9 -12 7 -12 -12z"/>
<path d="M222 940 c0 -14 2 -19 5 -12 2 6 2 18 0 25 -3 6 -5 1 -5 -13z"/>
<path d="M311 894 c0 -11 3 -14 6 -6 3 7 2 16 -1 19 -3 4 -6 -2 -5 -13z"/>
<path d="M210 861 c0 -6 5 -13 10 -16 6 -3 10 1 10 9 0 9 -4 16 -10 16 -5 0
-10 -4 -10 -9z"/>
<path d="M311 854 c0 -11 3 -14 6 -6 3 7 2 16 -1 19 -3 4 -6 -2 -5 -13z"/>
<path d="M210 785 c0 -8 5 -15 10 -15 6 0 10 7 10 15 0 8 -4 15 -10 15 -5 0
-10 -7 -10 -15z"/>
<path d="M410 765 c0 -14 5 -25 10 -25 6 0 10 11 10 25 0 14 -4 25 -10 25 -5
0 -10 -11 -10 -25z"/>
<path d="M210 721 c0 -6 5 -13 10 -16 6 -3 10 1 10 9 0 9 -4 16 -10 16 -5 0
-10 -4 -10 -9z"/>
<path d="M408 718 c-3 -7 -2 -22 2 -33 7 -19 7 -19 15 4 7 24 -8 53 -17 29z"/>
<path d="M310 696 c0 -31 6 -34 13 -6 3 11 1 23 -4 26 -5 3 -9 -6 -9 -20z"/>
<path d="M412 630 c0 -14 2 -19 5 -12 2 6 2 18 0 25 -3 6 -5 1 -5 -13z"/>
</g>
</svg>
